<svg width="40" height="40" viewBox="0 0 40 40" fill="none" xmlns="http://www.w3.org/2000/svg">
<path fill-rule="evenodd" clip-rule="evenodd" d="M20.7071 7.62627C20.3166 7.23574 19.6834 7.23574 19.2929 7.62627C18.9024 8.01679 18.9024 8.64996 19.2929 9.04048L29.2525 19H8.33337C7.78109 19 7.33337 19.4477 7.33337 20C7.33337 20.5523 7.78109 21 8.33337 21H29.2525L19.2929 30.9596C18.9024 31.3501 18.9024 31.9833 19.2929 32.3738C19.6834 32.7643 20.3166 32.7643 20.7071 32.3738L32.3738 20.7071C32.4674 20.6136 32.5386 20.506 32.5873 20.3912C32.6384 20.2711 32.6667 20.1389 32.6667 20C32.6667 19.8569 32.6366 19.7208 32.5825 19.5976C32.5411 19.5035 32.4845 19.4144 32.4127 19.3341C32.3988 19.3185 32.3844 19.3033 32.3695 19.2886L20.7071 7.62627Z" fill="white"/>
</svg>
