<svg width="60" height="60" viewBox="0 0 60 60" fill="none" xmlns="http://www.w3.org/2000/svg">
<path fill-rule="evenodd" clip-rule="evenodd" d="M4.29975 3.92746C5.80194 2.72579 7.87844 2.02492 10.0782 2.02492H57.9772V43.4875H10.0782C7.47468 43.4875 4.94465 44.313 3.05041 45.8283C2.67718 46.1269 2.33375 46.4484 2.02283 46.7896V8.26869C2.02283 6.69395 2.80335 5.12449 4.29975 3.92746ZM2.02283 51.7313C2.02283 53.3061 2.80335 54.8755 4.29975 56.0725C5.80194 57.2742 7.87844 57.9751 10.0782 57.9751H57.9772V45.4875H10.0782C7.87844 45.4875 5.80194 46.1884 4.29975 47.3901C2.80335 48.5871 2.02283 50.1566 2.02283 51.7313ZM59.9772 44.4875V1.02492C59.9772 0.472631 59.5294 0.0249157 58.9772 0.0249157H10.0782C7.47468 0.0249157 4.94465 0.8504 3.05041 2.36568C1.15039 3.88559 0.0228271 6.00109 0.0228271 8.26869V51.7313C0.0228271 53.9989 1.15039 56.1144 3.05041 57.6343C4.94465 59.1496 7.47468 59.9751 10.0782 59.9751H58.9772C59.5294 59.9751 59.9772 59.5274 59.9772 58.9751V44.4875Z" fill="white"/>
</svg>
