<svg width="80" height="80" viewBox="0 0 80 80" fill="none" xmlns="http://www.w3.org/2000/svg">
<path d="M77.3425 16.6094L45.4525 1.03093C42.7033 -0.343643 38.0298 -0.343643 35.2806 1.03093L2.6575 16.6094C0.366552 17.709 0 19.2669 0 20.0916C0 20.9164 0.366552 22.3826 2.6575 23.5739L5.31501 24.8568V39.5189C3.66552 40.1604 2.47423 41.8098 2.47423 43.6426C2.47423 45.4754 3.66552 47.1249 5.22337 47.7663L1.09966 60.8706H12.646L8.52234 47.7663C10.1718 47.1249 11.2715 45.4754 11.2715 43.6426C11.2715 41.7182 10.0802 40.1604 8.4307 39.5189V26.4147L13.2875 28.7972V47.858C13.2875 48.1329 13.3792 48.4078 13.5624 48.6827C14.0206 49.2325 22.543 60.8706 39.9542 60.8706C57.3654 60.8706 65.8877 49.1409 66.2543 48.6827C66.4376 48.4078 66.5292 48.1329 66.5292 47.858V28.8889L77.3425 23.5739C79.6334 22.4742 80 20.9164 80 20.0916C79.9084 19.2669 79.6334 17.709 77.3425 16.6094ZM63.5968 47.3998C62.1306 49.2325 54.2497 58.0298 39.9542 58.0298C25.6586 58.0298 17.7778 49.2325 16.3116 47.3998V30.0802L35.2806 39.1523C36.6552 39.7938 38.488 40.1604 40.3207 40.1604C42.2451 40.1604 44.0779 39.7938 45.4525 39.0607L63.5968 30.1718V47.3998ZM76.0596 21.008L65.063 26.4147C64.6048 26.4147 64.2383 26.5979 64.055 26.9645L44.1695 36.5865C42.2451 37.5945 38.488 37.5945 36.4719 36.5865L12.0046 24.8568L40.1375 21.5578C40.9622 21.4662 41.512 20.7331 41.4204 20C41.3288 19.1753 40.5956 18.6254 39.8625 18.7171L7.2394 22.5659L3.94044 21.008C3.11569 20.6415 2.93242 20.1833 2.93242 20.1833C2.93242 20.0916 3.11569 19.7251 3.94044 19.3585L36.5636 3.68843C37.5716 3.23024 38.9462 2.95533 40.3207 2.95533C41.7869 2.95533 43.2532 3.23024 44.1695 3.68843L76.0596 19.2669C76.8843 19.6334 77.0676 20 77.0676 20.1833C77.0676 20.1833 76.7927 20.6415 76.0596 21.008Z" fill="white"/>
</svg>
