<svg width="40" height="40" viewBox="0 0 40 40" fill="none" xmlns="http://www.w3.org/2000/svg">
<path d="M25 35H10C8.67392 35 7.40215 34.4732 6.46447 33.5355C5.52678 32.5979 5 31.3261 5 30V28.3333H21.6667V31.6667C21.6667 32.5507 22.0179 33.3986 22.643 34.0237C23.2681 34.6488 24.1159 35 25 35ZM25 35C25.8841 35 26.7319 34.6488 27.357 34.0237C27.9821 33.3986 28.3333 32.5507 28.3333 31.6667V8.33334C28.3333 7.67406 28.5288 7.0296 28.8951 6.48143C29.2614 5.93327 29.782 5.50603 30.3911 5.25374C31.0001 5.00144 31.6704 4.93543 32.317 5.06405C32.9636 5.19267 33.5575 5.51014 34.0237 5.97631C34.4899 6.44249 34.8073 7.03643 34.936 7.68303C35.0646 8.32964 34.9986 8.99986 34.7463 9.60895C34.494 10.218 34.0667 10.7386 33.5186 11.1049C32.9704 11.4712 32.3259 11.6667 31.6667 11.6667H28.3333L25 35ZM31.6667 5H13.3333C12.0073 5 10.7355 5.52679 9.7978 6.46447C8.86012 7.40215 8.33333 8.67392 8.33333 10V28.3333" stroke="white" stroke-width="2.75" stroke-linecap="round" stroke-linejoin="round"/>
<path d="M15 11.6666H21.6667" stroke="white" stroke-width="2.75" stroke-linecap="round" stroke-linejoin="round"/>
<path d="M15 18.3334H21.6667" stroke="white" stroke-width="2.75" stroke-linecap="round" stroke-linejoin="round"/>
</svg>
