<svg width="87" height="126" viewBox="0 0 87 126" fill="none" xmlns="http://www.w3.org/2000/svg">
<path d="M51.6072 0.314008C49.0554 1.04254 46.3132 2.26953 45.7038 2.95971C45.361 3.34315 45.1325 4.07168 45.2087 4.57014C45.3229 5.33701 45.5133 5.45204 46.8464 5.33701C54.9207 4.76186 56.9774 4.8002 59.5292 5.60542C65.7373 7.48425 70.8789 12.7373 74.002 20.291C76.173 25.5441 76.2872 26.9244 76.5919 54.1484C76.7443 67.837 76.7062 80.9505 76.5538 83.2511C76.3253 86.9704 76.173 87.5456 75.3351 88.3892C74.421 89.3094 74.3067 89.3477 69.584 89.156C65.6611 89.0027 64.1757 88.7726 61.7001 87.929C49.8933 83.903 43.2282 73.8186 44.7516 62.3155C45.818 54.1484 51.1121 48.3201 59.3006 46.2112C62.0429 45.5211 63.1474 45.4444 67.8701 45.6361C71.4122 45.7895 73.3926 45.7128 73.545 45.4444C74.3829 44.064 68.5176 42.4536 62.6523 42.4536C49.2458 42.4536 37.3628 51.3876 34.811 63.3508C34.1636 66.4183 34.1636 72.0548 34.811 74.6622C38.0865 87.9674 52.3308 95.4827 71.2598 93.9106C81.0861 93.1054 84.1711 91.1499 86.1897 84.4398C86.6848 82.8293 86.7991 78.5349 86.9514 57.0241C87.1038 29.7619 86.9895 27.9597 85.2375 22.3232C82.1145 12.3155 74.6876 4.37842 65.5087 1.19591C62.9189 0.275664 61.7382 0.12229 57.701 0.00725943C55.0731 -0.0310841 52.3308 0.0839465 51.6072 0.314008Z" fill="#E3000F"/>
<path d="M12.3019 1.42595C6.89365 2.11614 3.73248 3.8416 2.05667 7.02411C0 10.8201 0 10.8968 0 45.9045C0.0380865 74.5088 0.114259 78.7649 0.685557 82.2542C1.75198 88.7342 3.31352 91.3799 6.66513 92.3002C8.64563 92.837 17.7864 92.6453 17.9768 92.0701C18.053 91.8017 17.0627 90.9198 15.7297 90.0763C14.3967 89.2327 12.8351 88.0057 12.2258 87.3922C9.94057 84.9382 9.97866 85.4367 9.78823 48.0134C9.71205 29.225 9.75014 12.4689 9.90249 10.7051C10.2072 6.98577 10.7785 6.06552 13.0637 5.64374C15.425 5.22196 20.9476 5.83546 24.3753 6.94742C32.2212 9.4781 38.4673 15.7664 40.3717 23.1284C41.0953 25.8891 41.0953 31.6407 40.4098 34.248C38.0103 43.2971 29.7836 48.6269 19.0432 48.0901C16.9485 47.975 14.8918 47.7833 14.4729 47.6683C14.0539 47.5149 13.4445 47.5916 13.1398 47.8217C12.1877 48.5118 13.9777 49.6238 17.177 50.3523C21.7093 51.3493 28.3363 50.9658 32.6401 49.4704C38.6197 47.3615 44.2946 43.1054 47.2653 38.4275C50.1599 33.8263 51.5691 26.0809 50.4646 20.521C48.7507 11.7787 41.6666 5.06859 31.1167 2.30785C28.0697 1.50264 26.3558 1.34927 21.138 1.23423C17.6721 1.15755 13.7111 1.23423 12.3019 1.42595Z" fill="#1A71EC"/>
<path d="M6.08494 113.528V106.428H9.02494C9.33161 106.428 9.61161 106.494 9.86494 106.628C10.1249 106.754 10.3483 106.924 10.5349 107.138C10.7216 107.344 10.8683 107.581 10.9749 107.848C11.0816 108.114 11.1349 108.384 11.1349 108.658C11.1349 108.951 11.0849 109.234 10.9849 109.508C10.8849 109.774 10.7449 110.011 10.5649 110.218C10.3849 110.424 10.1683 110.591 9.91494 110.718C9.66827 110.844 9.39161 110.908 9.08494 110.908H6.78494V113.528H6.08494ZM6.78494 110.288H9.05494C9.26161 110.288 9.44827 110.244 9.61494 110.158C9.78827 110.064 9.93494 109.944 10.0549 109.798C10.1749 109.644 10.2683 109.471 10.3349 109.278C10.4016 109.078 10.4349 108.871 10.4349 108.658C10.4349 108.438 10.3949 108.231 10.3149 108.038C10.2416 107.838 10.1383 107.664 10.0049 107.518C9.87827 107.371 9.72494 107.258 9.54494 107.178C9.37161 107.091 9.18827 107.048 8.99494 107.048H6.78494V110.288ZM12.8056 113.528V106.428H15.8056C16.1123 106.428 16.3923 106.494 16.6456 106.628C16.9056 106.754 17.129 106.924 17.3156 107.138C17.5023 107.344 17.6456 107.581 17.7456 107.848C17.8523 108.114 17.9056 108.384 17.9056 108.658C17.9056 108.918 17.8656 109.168 17.7856 109.408C17.7123 109.641 17.6056 109.854 17.4656 110.048C17.3323 110.234 17.169 110.394 16.9756 110.528C16.7823 110.654 16.5656 110.741 16.3256 110.788L18.0656 113.528H17.2756L15.6056 110.908H13.5056V113.528H12.8056ZM13.5056 110.288H15.8256C16.0323 110.288 16.219 110.244 16.3856 110.158C16.559 110.064 16.7056 109.941 16.8256 109.788C16.9456 109.634 17.039 109.461 17.1056 109.268C17.1723 109.074 17.2056 108.871 17.2056 108.658C17.2056 108.444 17.1656 108.241 17.0856 108.048C17.0123 107.848 16.909 107.674 16.7756 107.528C16.649 107.381 16.4956 107.264 16.3156 107.178C16.1423 107.091 15.959 107.048 15.7656 107.048H13.5056V110.288ZM22.6988 113.578C22.2055 113.578 21.7522 113.478 21.3388 113.278C20.9322 113.071 20.5822 112.801 20.2888 112.468C19.9955 112.128 19.7688 111.741 19.6088 111.308C19.4488 110.874 19.3688 110.431 19.3688 109.978C19.3688 109.504 19.4522 109.051 19.6188 108.618C19.7922 108.184 20.0288 107.801 20.3288 107.468C20.6288 107.134 20.9822 106.871 21.3888 106.678C21.7955 106.478 22.2355 106.378 22.7088 106.378C23.2022 106.378 23.6522 106.484 24.0588 106.698C24.4722 106.904 24.8222 107.178 25.1088 107.518C25.4022 107.858 25.6288 108.244 25.7888 108.678C25.9488 109.104 26.0288 109.541 26.0288 109.988C26.0288 110.461 25.9422 110.914 25.7688 111.348C25.6022 111.781 25.3688 112.164 25.0688 112.498C24.7755 112.824 24.4255 113.088 24.0188 113.288C23.6122 113.481 23.1722 113.578 22.6988 113.578ZM20.0688 109.978C20.0688 110.364 20.1322 110.738 20.2588 111.098C20.3855 111.451 20.5655 111.768 20.7988 112.048C21.0322 112.321 21.3088 112.541 21.6288 112.708C21.9488 112.868 22.3055 112.948 22.6988 112.948C23.0988 112.948 23.4622 112.861 23.7888 112.688C24.1155 112.514 24.3922 112.288 24.6188 112.008C24.8455 111.728 25.0188 111.411 25.1388 111.058C25.2655 110.704 25.3288 110.344 25.3288 109.978C25.3288 109.591 25.2622 109.221 25.1288 108.868C25.0022 108.508 24.8222 108.191 24.5888 107.918C24.3555 107.644 24.0788 107.428 23.7588 107.268C23.4388 107.101 23.0855 107.018 22.6988 107.018C22.2988 107.018 21.9355 107.104 21.6088 107.278C21.2822 107.444 21.0055 107.668 20.7788 107.948C20.5522 108.228 20.3755 108.544 20.2488 108.898C20.1288 109.251 20.0688 109.611 20.0688 109.978ZM27.8486 113.528V106.428H32.5086V107.048H28.5486V109.658H31.8886V110.238H28.5486V113.528H27.8486ZM39.0073 112.908V113.528H34.2373V106.428H38.9173V107.048H34.9373V109.608H38.4073V110.198H34.9373V112.908H39.0073ZM44.8345 107.758C44.6345 107.531 44.3679 107.348 44.0345 107.208C43.7012 107.068 43.3212 106.998 42.8945 106.998C42.2679 106.998 41.8112 107.118 41.5245 107.358C41.2379 107.591 41.0945 107.911 41.0945 108.318C41.0945 108.531 41.1312 108.708 41.2045 108.848C41.2845 108.981 41.4045 109.098 41.5645 109.198C41.7245 109.298 41.9279 109.384 42.1745 109.458C42.4279 109.531 42.7245 109.604 43.0645 109.678C43.4445 109.758 43.7845 109.848 44.0845 109.948C44.3912 110.048 44.6512 110.174 44.8645 110.328C45.0779 110.474 45.2412 110.654 45.3545 110.868C45.4679 111.081 45.5245 111.348 45.5245 111.668C45.5245 111.994 45.4612 112.278 45.3345 112.518C45.2079 112.758 45.0312 112.958 44.8045 113.118C44.5779 113.278 44.3079 113.398 43.9945 113.478C43.6812 113.551 43.3379 113.588 42.9645 113.588C41.8645 113.588 40.9145 113.244 40.1145 112.558L40.4645 111.988C40.5912 112.121 40.7412 112.248 40.9145 112.368C41.0945 112.488 41.2912 112.594 41.5045 112.688C41.7245 112.774 41.9579 112.844 42.2045 112.898C42.4512 112.944 42.7112 112.968 42.9845 112.968C43.5512 112.968 43.9912 112.868 44.3045 112.668C44.6245 112.461 44.7845 112.151 44.7845 111.738C44.7845 111.518 44.7379 111.334 44.6445 111.188C44.5579 111.034 44.4245 110.904 44.2445 110.798C44.0645 110.684 43.8412 110.588 43.5745 110.508C43.3079 110.428 42.9979 110.348 42.6445 110.268C42.2712 110.181 41.9445 110.091 41.6645 109.998C41.3845 109.904 41.1479 109.788 40.9545 109.648C40.7612 109.508 40.6145 109.341 40.5145 109.148C40.4212 108.948 40.3745 108.704 40.3745 108.418C40.3745 108.091 40.4345 107.801 40.5545 107.548C40.6812 107.288 40.8579 107.074 41.0845 106.908C41.3112 106.734 41.5779 106.604 41.8845 106.518C42.1912 106.424 42.5312 106.378 42.9045 106.378C43.3779 106.378 43.7979 106.451 44.1645 106.598C44.5379 106.738 44.8745 106.938 45.1745 107.198L44.8345 107.758ZM47.1523 106.428L49.4723 110.248L51.8123 106.428H52.5723L49.8223 110.888V113.528H49.1223V110.868L46.3823 106.428H47.1523ZM56.5074 113.578C56.0141 113.578 55.5608 113.478 55.1474 113.278C54.7408 113.071 54.3908 112.801 54.0974 112.468C53.8041 112.128 53.5774 111.741 53.4174 111.308C53.2574 110.874 53.1774 110.431 53.1774 109.978C53.1774 109.504 53.2608 109.051 53.4274 108.618C53.6008 108.184 53.8374 107.801 54.1374 107.468C54.4374 107.134 54.7908 106.871 55.1974 106.678C55.6041 106.478 56.0441 106.378 56.5174 106.378C57.0108 106.378 57.4608 106.484 57.8674 106.698C58.2808 106.904 58.6308 107.178 58.9174 107.518C59.2108 107.858 59.4374 108.244 59.5974 108.678C59.7574 109.104 59.8374 109.541 59.8374 109.988C59.8374 110.461 59.7508 110.914 59.5774 111.348C59.4108 111.781 59.1774 112.164 58.8774 112.498C58.5841 112.824 58.2341 113.088 57.8274 113.288C57.4208 113.481 56.9808 113.578 56.5074 113.578ZM53.8774 109.978C53.8774 110.364 53.9408 110.738 54.0674 111.098C54.1941 111.451 54.3741 111.768 54.6074 112.048C54.8408 112.321 55.1174 112.541 55.4374 112.708C55.7574 112.868 56.1141 112.948 56.5074 112.948C56.9074 112.948 57.2708 112.861 57.5974 112.688C57.9241 112.514 58.2008 112.288 58.4274 112.008C58.6541 111.728 58.8274 111.411 58.9474 111.058C59.0741 110.704 59.1374 110.344 59.1374 109.978C59.1374 109.591 59.0708 109.221 58.9374 108.868C58.8108 108.508 58.6308 108.191 58.3974 107.918C58.1641 107.644 57.8874 107.428 57.5674 107.268C57.2474 107.101 56.8941 107.018 56.5074 107.018C56.1074 107.018 55.7441 107.104 55.4174 107.278C55.0908 107.444 54.8141 107.668 54.5874 107.948C54.3608 108.228 54.1841 108.544 54.0574 108.898C53.9374 109.251 53.8774 109.611 53.8774 109.978ZM62.3572 107.728V113.528H61.6572V106.428H62.1972L66.8972 112.338V106.438H67.5972V113.528H66.9872L62.3572 107.728ZM74.6518 112.908V113.528H69.8818V106.428H74.5618V107.048H70.5818V109.608H74.0518V110.198H70.5818V112.908H74.6518ZM76.4756 113.528V106.428H77.1756V112.908H81.2756V113.528H76.4756ZM22.7918 118.428H23.3818L26.3318 125.528H25.5918L24.6718 123.308H21.4818L20.5718 125.528H19.8218L22.7918 118.428ZM24.5118 122.758L23.0818 119.248L21.6318 122.758H24.5118ZM27.8496 125.528V118.438H28.5496V122.558L32.4596 118.428H33.2296L30.3296 121.548L33.3796 125.528H32.6096L29.8896 121.958L28.5496 123.348V125.528H27.8496ZM36.9754 118.428H37.5654L40.5154 125.528H39.7754L38.8554 123.308H35.6654L34.7554 125.528H34.0054L36.9754 118.428ZM38.6954 122.758L37.2654 119.248L35.8154 122.758H38.6954ZM42.0332 125.528V118.428H44.4432C45.0098 118.428 45.5032 118.521 45.9232 118.708C46.3498 118.894 46.7032 119.148 46.9832 119.468C47.2698 119.788 47.4832 120.164 47.6232 120.598C47.7698 121.024 47.8432 121.481 47.8432 121.968C47.8432 122.508 47.7632 122.998 47.6032 123.438C47.4432 123.871 47.2132 124.244 46.9132 124.558C46.6198 124.864 46.2632 125.104 45.8432 125.278C45.4298 125.444 44.9632 125.528 44.4432 125.528H42.0332ZM47.1432 121.968C47.1432 121.541 47.0832 121.151 46.9632 120.798C46.8432 120.438 46.6665 120.128 46.4332 119.868C46.2065 119.608 45.9265 119.408 45.5932 119.268C45.2598 119.121 44.8765 119.048 44.4432 119.048H42.7332V124.908H44.4432C44.8832 124.908 45.2698 124.834 45.6032 124.688C45.9432 124.534 46.2265 124.328 46.4532 124.068C46.6798 123.801 46.8498 123.491 46.9632 123.138C47.0832 122.778 47.1432 122.388 47.1432 121.968ZM54.4516 124.908V125.528H49.6816V118.428H54.3616V119.048H50.3816V121.608H53.8516V122.198H50.3816V124.908H54.4516ZM62.5654 125.528V119.698L59.9754 124.208H59.5654L56.9754 119.698V125.528H56.2754V118.428H56.9954L59.7654 123.288L62.5554 118.428H63.2654V125.528H62.5654ZM65.5449 125.528V118.428H66.2449V125.528H65.5449ZM65.5849 117.328V116.358H66.2049V117.328H65.5849Z" fill="black"/>
</svg>
