<svg width="70" height="69" viewBox="0 0 70 69" fill="none" xmlns="http://www.w3.org/2000/svg">
<path d="M49.5833 8.62498C50.3494 7.86988 51.2588 7.2709 52.2597 6.86225C53.2606 6.45359 54.3333 6.24326 55.4166 6.24326C56.5 6.24326 57.5727 6.45359 58.5736 6.86225C59.5745 7.2709 60.4839 7.86988 61.25 8.62498C62.016 9.38008 62.6237 10.2765 63.0383 11.2631C63.4528 12.2497 63.6662 13.3071 63.6662 14.375C63.6662 15.4429 63.4528 16.5003 63.0383 17.4869C62.6237 18.4734 62.016 19.3699 61.25 20.125L21.875 58.9375L5.83331 63.25L10.2083 47.4375L49.5833 8.62498Z" stroke="white" stroke-width="4" stroke-linecap="round" stroke-linejoin="round"/>
</svg>
