<svg width="72" height="72" viewBox="0 0 72 72" fill="none" xmlns="http://www.w3.org/2000/svg">
<path fill-rule="evenodd" clip-rule="evenodd" d="M3.37363 36C3.37363 18.0166 17.9785 3.43363 36 3.43363C54.0215 3.43363 68.6264 18.0166 68.6264 36C68.6264 53.9834 54.0215 68.5664 36 68.5664C17.9785 68.5664 3.37363 53.9834 3.37363 36ZM36 0.433629C16.3266 0.433629 0.373631 16.3547 0.373631 36C0.373631 55.6452 16.3266 71.5664 36 71.5664C55.6734 71.5664 71.6264 55.6452 71.6264 36C71.6264 16.3547 55.6734 0.433629 36 0.433629ZM23.1485 42.212C22.8167 41.771 22.1901 41.6822 21.7488 42.0138C21.3072 42.3455 21.2182 42.9724 21.55 43.4139L22.3495 42.8133C21.55 43.4139 21.5502 43.4143 21.5505 43.4146L21.5511 43.4155L21.5528 43.4177L21.5575 43.4239L21.5727 43.4437C21.5853 43.46 21.6029 43.4826 21.6255 43.5112C21.6707 43.5682 21.7359 43.6488 21.8207 43.7496C21.9901 43.951 22.238 44.2337 22.5612 44.5704C23.2069 45.2429 24.1576 46.136 25.3879 47.0291C27.8446 48.8127 31.4592 50.6265 36 50.6265C40.5408 50.6265 44.1554 48.8127 46.6121 47.0291C47.8424 46.136 48.7932 45.2429 49.4388 44.5704C49.762 44.2337 50.01 43.951 50.1793 43.7496C50.2641 43.6488 50.3293 43.5682 50.3745 43.5112L50.4092 43.467L50.4274 43.4437L50.4425 43.4239L50.4472 43.4177L50.4489 43.4155L50.4495 43.4146C50.4498 43.4143 50.45 43.414 49.6991 42.8497L50.45 43.4139C50.7818 42.9724 50.6928 42.3455 50.2512 42.0138C49.8099 41.6822 49.1833 41.771 48.8515 42.212L48.8511 42.2125L48.8511 42.2126L48.8439 42.222C48.8366 42.2314 48.8244 42.247 48.8075 42.2684C48.7735 42.3112 48.7204 42.377 48.6485 42.4625C48.5046 42.6336 48.286 42.8832 47.996 43.1853C47.4152 43.7903 46.5531 44.6005 45.4371 45.4107C43.2014 47.0338 39.9908 48.6265 36 48.6265C32.0092 48.6265 28.7986 47.0338 26.5629 45.4107C25.4469 44.6005 24.5848 43.7903 24.004 43.1853C23.714 42.8832 23.4954 42.6336 23.3515 42.4625C23.2796 42.377 23.2265 42.3112 23.1925 42.2684C23.1756 42.247 23.1634 42.2314 23.1562 42.222L23.149 42.2126L22.3495 42.8133C23.149 42.2126 23.1487 42.2123 23.1485 42.212ZM24.7621 25.7801C24.7621 25.2278 25.2098 24.7801 25.7621 24.7801H25.7962C26.3485 24.7801 26.7962 25.2278 26.7962 25.7801C26.7962 26.3323 26.3485 26.7801 25.7962 26.7801H25.7621C25.2098 26.7801 24.7621 26.3323 24.7621 25.7801ZM46.2379 24.7801C45.6856 24.7801 45.2379 25.2278 45.2379 25.7801C45.2379 26.3323 45.6856 26.7801 46.2379 26.7801H46.272C46.8243 26.7801 47.272 26.3323 47.272 25.7801C47.272 25.2278 46.8243 24.7801 46.272 24.7801H46.2379Z" fill="white"/>
</svg>
